<svg viewBox="0 0 1524 1524" xmlns="http://www.w3.org/2000/svg">
<path fill="currentColor" d="M346 314C328 314 314 328 314 346V1050H250V346C250 293 293 250 346 250H1203.4C1246 250 1267.6 302 1237 332L709 860H858V794H922V876C922 902.5 900.5 924 874 924H645L535 1034H1034V634H1098V1034C1098 1069.4 1069.4 1098 1034 1098H471 L359  1210H1178C1196 1210 1210 1196 1210 1178V474H1274V1178C1274 1231 1231 1274 1178 1274H320.6C278 1274 256.4 1222 287 1192L813 666H666V730H602V650C602 623.5 623.5 602 650 602H877L989 490H490V890H426V490C426 455 455 426 490 426H1053L1165 314H346Z" />
</svg>
